REM DIRINDEX 1\2\6,1\2\7,1\2\8,1\3\9,1\3\10,1\3\11,1\4\12,1\4\13,1\4\14,1\5\15,1\5\16,1\5\17,1\5\18
REM DIRNAME folder01,folder02,folder03,folder04,folder05,folder06,folder07,folder08,folder09,folder10,folder11,folder12,folder13,folder14,folder15,folder16,folder17,folder18
TITLE ""
FILE "2Q_j_1583-1596.mp3" MP3
  TRACK 01 AUDIO
    TITLE "6:cjc019_1212"
    INDEX 01 00:00:00
  TRACK 02 AUDIO
    TITLE "0:"
    INDEX 01 00:01:24
  TRACK 03 AUDIO
    TITLE "7:cjc019_1213"
    INDEX 01 00:02:06
  TRACK 04 AUDIO
    TITLE "0:"
    INDEX 01 00:07:37
  TRACK 05 AUDIO
    TITLE "8:cjc019_1214"
    INDEX 01 00:08:09
  TRACK 06 AUDIO
    TITLE "0:"
    INDEX 01 00:12:42
  TRACK 07 AUDIO
    TITLE "6:cjc019_1215"
    INDEX 01 00:13:24
  TRACK 08 AUDIO
    TITLE "0:"
    INDEX 01 00:14:70
  TRACK 09 AUDIO
    TITLE "7:cjc019_1216"
    INDEX 01 00:15:62
  TRACK 10 AUDIO
    TITLE "0:"
    INDEX 01 00:17:39
  TRACK 11 AUDIO
    TITLE "8:cjc019_1217"
    INDEX 01 00:18:25
  TRACK 12 AUDIO
    TITLE "0:"
    INDEX 01 00:21:57
  TRACK 13 AUDIO
    TITLE "6:cjc019_1218"
    INDEX 01 00:22:38
  TRACK 14 AUDIO
    TITLE "0:"
    INDEX 01 00:24:69
  TRACK 15 AUDIO
    TITLE "7:cjc019_1219"
    INDEX 01 00:25:48
  TRACK 16 AUDIO
    TITLE "0:"
    INDEX 01 00:29:72
  TRACK 17 AUDIO
    TITLE "8:cjc019_1220"
    INDEX 01 00:30:44
  TRACK 18 AUDIO
    TITLE "0:"
    INDEX 01 00:34:24
  TRACK 19 AUDIO
    TITLE "6:cjc019_1221"
    INDEX 01 00:35:04
  TRACK 20 AUDIO
    TITLE "0:"
    INDEX 01 00:36:33
  TRACK 21 AUDIO
    TITLE "7:cjc019_1222"
    INDEX 01 00:37:14
  TRACK 22 AUDIO
    TITLE "0:"
    INDEX 01 00:41:36
  TRACK 23 AUDIO
    TITLE "8:cjc019_1223"
    INDEX 01 00:42:12
  TRACK 24 AUDIO
    TITLE "0:"
    INDEX 01 00:46:45
  TRACK 25 AUDIO
    TITLE "6:cjc019_1224"
    INDEX 01 00:47:25
  TRACK 26 AUDIO
    TITLE "0:"
    INDEX 01 00:49:18
  TRACK 27 AUDIO
    TITLE "7:cjc019_1225"
    INDEX 01 00:49:70
  TRACK 28 AUDIO
    TITLE "0:"
    INDEX 01 00:51:73
  TRACK 29 AUDIO
    TITLE "8:cjc019_1226"
    INDEX 01 00:52:53
  TRACK 30 AUDIO
    TITLE "0:"
    INDEX 01 00:55:63
  TRACK 31 AUDIO
    TITLE "6:cjc019_1227"
    INDEX 01 00:56:53
  TRACK 32 AUDIO
    TITLE "0:"
    INDEX 01 00:58:18
  TRACK 33 AUDIO
    TITLE "7:cjc019_1228"
    INDEX 01 00:59:00
  TRACK 34 AUDIO
    TITLE "0:"
    INDEX 01 01:00:66
  TRACK 35 AUDIO
    TITLE "8:cjc019_1229"
    INDEX 01 01:01:44
  TRACK 36 AUDIO
    TITLE "0:"
    INDEX 01 01:05:21
  TRACK 37 AUDIO
    TITLE "6:cjc019_1230"
    INDEX 01 01:06:04
  TRACK 38 AUDIO
    TITLE "0:"
    INDEX 01 01:08:03
  TRACK 39 AUDIO
    TITLE "7:cjc019_1231"
    INDEX 01 01:08:68
  TRACK 40 AUDIO
    TITLE "0:"
    INDEX 01 01:11:07
  TRACK 41 AUDIO
    TITLE "8:cjc019_1232"
    INDEX 01 01:11:64
  TRACK 42 AUDIO
    TITLE "0:"
    INDEX 01 01:16:42
  TRACK 43 AUDIO
    TITLE "6:cjc019_1233"
    INDEX 01 01:17:32
  TRACK 44 AUDIO
    TITLE "0:"
    INDEX 01 01:18:64
  TRACK 45 AUDIO
    TITLE "7:cjc019_1234"
    INDEX 01 01:19:48
  TRACK 46 AUDIO
    TITLE "0:"
    INDEX 01 01:21:49
  TRACK 47 AUDIO
    TITLE "8:cjc019_1235"
    INDEX 01 01:22:33
  TRACK 48 AUDIO
    TITLE "0:"
    INDEX 01 01:26:58
  TRACK 49 AUDIO
    TITLE "6:cjc019_1236"
    INDEX 01 01:27:44
  TRACK 50 AUDIO
    TITLE "0:"
    INDEX 01 01:29:27
  TRACK 51 AUDIO
    TITLE "7:cjc019_1237"
    INDEX 01 01:30:15
  TRACK 52 AUDIO
    TITLE "0:"
    INDEX 01 01:31:22
  TRACK 53 AUDIO
    TITLE "8:cjc019_1238"
    INDEX 01 01:32:02
  TRACK 54 AUDIO
    TITLE "0:"
    INDEX 01 01:35:29
  TRACK 55 AUDIO
    TITLE "6:cjc019_1239"
    INDEX 01 01:36:17
  TRACK 56 AUDIO
    TITLE "0:"
    INDEX 01 01:38:24
  TRACK 57 AUDIO
    TITLE "7:cjc019_1240"
    INDEX 01 01:39:10
  TRACK 58 AUDIO
    TITLE "0:"
    INDEX 01 01:40:64
  TRACK 59 AUDIO
    TITLE "8:cjc019_1241"
    INDEX 01 01:41:50
  TRACK 60 AUDIO
    TITLE "0:"
    INDEX 01 01:46:06
  TRACK 61 AUDIO
    TITLE "6:cjc019_1242"
    INDEX 01 01:46:68
  TRACK 62 AUDIO
    TITLE "0:"
    INDEX 01 01:48:58
  TRACK 63 AUDIO
    TITLE "7:cjc019_1243"
    INDEX 01 01:49:41
  TRACK 64 AUDIO
    TITLE "0:"
    INDEX 01 01:51:60
  TRACK 65 AUDIO
    TITLE "8:cjc019_1244"
    INDEX 01 01:52:46
  TRACK 66 AUDIO
    TITLE "0:"
    INDEX 01 01:55:46
  TRACK 67 AUDIO
    TITLE "6:cjc019_1245"
    INDEX 01 01:56:26
  TRACK 68 AUDIO
    TITLE "0:"
    INDEX 01 01:58:42
  TRACK 69 AUDIO
    TITLE "7:cjc019_1246"
    INDEX 01 01:59:26
  TRACK 70 AUDIO
    TITLE "0:"
    INDEX 01 02:01:33
  TRACK 71 AUDIO
    TITLE "8:cjc019_1247"
    INDEX 01 02:02:13
  TRACK 72 AUDIO
    TITLE "0:"
    INDEX 01 02:05:27
  TRACK 73 AUDIO
    TITLE "6:cjc019_1248"
    INDEX 01 02:06:06
  TRACK 74 AUDIO
    TITLE "0:"
    INDEX 01 02:07:57
  TRACK 75 AUDIO
    TITLE "7:cjc019_1249"
    INDEX 01 02:08:39
  TRACK 76 AUDIO
    TITLE "0:"
    INDEX 01 02:10:36
  TRACK 77 AUDIO
    TITLE "8:cjc019_1250"
    INDEX 01 02:11:19
  TRACK 78 AUDIO
    TITLE "0:"
    INDEX 01 02:16:42
  TRACK 79 AUDIO
    TITLE "6:cjc019_1251"
    INDEX 01 02:17:24
  TRACK 80 AUDIO
    TITLE "0:"
    INDEX 01 02:19:33
  TRACK 81 AUDIO
    TITLE "7:cjc019_1252"
    INDEX 01 02:20:16
  TRACK 82 AUDIO
    TITLE "0:"
    INDEX 01 02:21:67
  TRACK 83 AUDIO
    TITLE "8:cjc019_1253"
    INDEX 01 02:22:51
  TRACK 84 AUDIO
    TITLE "0:"
    INDEX 01 02:25:00
